{
	"asset":{
		"generator":"Khronos glTF Blender I/O v3.6.27",
		"version":"2.0"
	},
	"scene":0,
	"scenes":[
		{
			"name":"Scene",
			"nodes":[
				4
			]
		}
	],
	"nodes":[
		{
			"mesh":0,
			"name":"Object_2"
		},
		{
			"mesh":1,
			"name":"Object_3"
		},
		{
			"mesh":2,
			"name":"Object_4"
		},
		{
			"children":[
				0,
				1,
				2
			],
			"name":"cama_fnl.obj.cleaner.materialmerger.gles"
		},
		{
			"children":[
				3
			],
			"name":"Sketchfab_model",
			"rotation":[
				-0.70710688829422,
				0,
				0,
				0.7071066498756409
			],
			"scale":[
				0.010998057201504707,
				0.010998057201504707,
				0.010998057201504707
			],
			"translation":[
				0,
				-0.20940904319286346,
				0
			]
		}
	],
	"materials":[
		{
			"doubleSided":true,
			"name":"mt_base_cama",
			"normalTexture":{
				"index":0
			},
			"occlusionTexture":{
				"index":1
			},
			"pbrMetallicRoughness":{
				"baseColorTexture":{
					"index":2
				},
				"metallicFactor":0,
				"metallicRoughnessTexture":{
					"index":1
				},
				"roughnessFactor":0.4000000059604645
			}
		},
		{
			"doubleSided":true,
			"name":"mt_colchon_almuada",
			"normalTexture":{
				"index":3
			},
			"occlusionTexture":{
				"index":4,
				"strength":0.699999988079071
			},
			"pbrMetallicRoughness":{
				"baseColorTexture":{
					"index":5
				},
				"metallicFactor":0,
				"metallicRoughnessTexture":{
					"index":4
				},
				"roughnessFactor":0.6000000238418579
			}
		},
		{
			"doubleSided":true,
			"name":"mt_edredon",
			"normalTexture":{
				"index":6,
				"scale":0.8999999761581421
			},
			"occlusionTexture":{
				"index":7
			},
			"pbrMetallicRoughness":{
				"baseColorTexture":{
					"index":8
				},
				"metallicFactor":0,
				"metallicRoughnessTexture":{
					"index":7
				},
				"roughnessFactor":0.9799758791923523
			}
		}
	],
	"meshes":[
		{
			"name":"Object_0.001",
			"primitives":[
				{
					"attributes":{
						"POSITION":0,
						"NORMAL":1,
						"TEXCOORD_0":2
					},
					"indices":3,
					"material":0
				}
			]
		},
		{
			"name":"Object_1",
			"primitives":[
				{
					"attributes":{
						"POSITION":4,
						"NORMAL":5,
						"TEXCOORD_0":6
					},
					"indices":7,
					"material":1
				}
			]
		},
		{
			"name":"Object_2",
			"primitives":[
				{
					"attributes":{
						"POSITION":8,
						"NORMAL":9,
						"TEXCOORD_0":10
					},
					"indices":11,
					"material":2
				}
			]
		}
	],
	"textures":[
		{
			"sampler":0,
			"source":0
		},
		{
			"sampler":0,
			"source":1
		},
		{
			"sampler":0,
			"source":2
		},
		{
			"sampler":0,
			"source":3
		},
		{
			"sampler":0,
			"source":4
		},
		{
			"sampler":0,
			"source":5
		},
		{
			"sampler":0,
			"source":6
		},
		{
			"sampler":0,
			"source":7
		},
		{
			"sampler":0,
			"source":8
		}
	],
	"images":[
		{
			"bufferView":4,
			"mimeType":"image/png",
			"name":"Image_2"
		},
		{
			"bufferView":5,
			"mimeType":"image/png",
			"name":"Image_1"
		},
		{
			"bufferView":6,
			"mimeType":"image/png",
			"name":"Image_0"
		},
		{
			"bufferView":11,
			"mimeType":"image/png",
			"name":"Image_5"
		},
		{
			"bufferView":12,
			"mimeType":"image/png",
			"name":"Image_4"
		},
		{
			"bufferView":13,
			"mimeType":"image/png",
			"name":"Image_3"
		},
		{
			"bufferView":18,
			"mimeType":"image/png",
			"name":"Image_8"
		},
		{
			"bufferView":19,
			"mimeType":"image/png",
			"name":"Image_7"
		},
		{
			"bufferView":20,
			"mimeType":"image/png",
			"name":"Image_6"
		}
	],
	"accessors":[
		{
			"bufferView":0,
			"componentType":5126,
			"count":1419,
			"max":[
				105.5281753540039,
				119.9696044921875,
				92.35397338867188
			],
			"min":[
				-103.03543090820312,
				-119.9696044921875,
				21.154155731201172
			],
			"type":"VEC3"
		},
		{
			"bufferView":1,
			"componentType":5126,
			"count":1419,
			"type":"VEC3"
		},
		{
			"bufferView":2,
			"componentType":5126,
			"count":1419,
			"type":"VEC2"
		},
		{
			"bufferView":3,
			"componentType":5123,
			"count":6012,
			"type":"SCALAR"
		},
		{
			"bufferView":7,
			"componentType":5126,
			"count":775,
			"max":[
				91.44429779052734,
				109.16204071044922,
				88.72891235351562
			],
			"min":[
				-96.89862060546875,
				-98.42476654052734,
				27.02857780456543
			],
			"type":"VEC3"
		},
		{
			"bufferView":8,
			"componentType":5126,
			"count":775,
			"type":"VEC3"
		},
		{
			"bufferView":9,
			"componentType":5126,
			"count":775,
			"type":"VEC2"
		},
		{
			"bufferView":10,
			"componentType":5123,
			"count":3888,
			"type":"SCALAR"
		},
		{
			"bufferView":14,
			"componentType":5126,
			"count":1073,
			"max":[
				111.01606750488281,
				28.406227111816406,
				56.00448989868164
			],
			"min":[
				-111.01606750488281,
				-108.78268432617188,
				11.287996292114258
			],
			"type":"VEC3"
		},
		{
			"bufferView":15,
			"componentType":5126,
			"count":1073,
			"type":"VEC3"
		},
		{
			"bufferView":16,
			"componentType":5126,
			"count":1073,
			"type":"VEC2"
		},
		{
			"bufferView":17,
			"componentType":5123,
			"count":6075,
			"type":"SCALAR"
		}
	],
	"bufferViews":[
		{
			"buffer":0,
			"byteLength":17028,
			"byteOffset":0,
			"target":34962
		},
		{
			"buffer":0,
			"byteLength":17028,
			"byteOffset":17028,
			"target":34962
		},
		{
			"buffer":0,
			"byteLength":11352,
			"byteOffset":34056,
			"target":34962
		},
		{
			"buffer":0,
			"byteLength":12024,
			"byteOffset":45408,
			"target":34963
		},
		{
			"buffer":0,
			"byteLength":1130021,
			"byteOffset":57432
		},
		{
			"buffer":0,
			"byteLength":47746,
			"byteOffset":1187456
		},
		{
			"buffer":0,
			"byteLength":2656,
			"byteOffset":1235204
		},
		{
			"buffer":0,
			"byteLength":9300,
			"byteOffset":1237860,
			"target":34962
		},
		{
			"buffer":0,
			"byteLength":9300,
			"byteOffset":1247160,
			"target":34962
		},
		{
			"buffer":0,
			"byteLength":6200,
			"byteOffset":1256460,
			"target":34962
		},
		{
			"buffer":0,
			"byteLength":7776,
			"byteOffset":1262660,
			"target":34963
		},
		{
			"buffer":0,
			"byteLength":404286,
			"byteOffset":1270436
		},
		{
			"buffer":0,
			"byteLength":117554,
			"byteOffset":1674724
		},
		{
			"buffer":0,
			"byteLength":4940,
			"byteOffset":1792280
		},
		{
			"buffer":0,
			"byteLength":12876,
			"byteOffset":1797220,
			"target":34962
		},
		{
			"buffer":0,
			"byteLength":12876,
			"byteOffset":1810096,
			"target":34962
		},
		{
			"buffer":0,
			"byteLength":8584,
			"byteOffset":1822972,
			"target":34962
		},
		{
			"buffer":0,
			"byteLength":12150,
			"byteOffset":1831556,
			"target":34963
		},
		{
			"buffer":0,
			"byteLength":420453,
			"byteOffset":1843708
		},
		{
			"buffer":0,
			"byteLength":70201,
			"byteOffset":2264164
		},
		{
			"buffer":0,
			"byteLength":219218,
			"byteOffset":2334368
		}
	],
	"samplers":[
		{
			"magFilter":9729,
			"minFilter":9987
		}
	],
	"buffers":[
		{
			"byteLength":2553588,
			"uri":"data:application/octet-stream;base64,"
		}
	]
}
