{
	"asset":{
		"generator":"Khronos glTF Blender I/O v3.6.27",
		"version":"2.0"
	},
	"extensionsUsed":[
		"KHR_materials_transmission"
	],
	"scene":0,
	"scenes":[
		{
			"name":"Scene",
			"nodes":[
				0
			]
		}
	],
	"nodes":[
		{
			"mesh":0,
			"name":"Lamp_4",
			"scale":[
				0.8435914516448975,
				0.8435914516448975,
				0.8435914516448975
			]
		}
	],
	"materials":[
		{
			"doubleSided":true,
			"name":"cable",
			"pbrMetallicRoughness":{
				"baseColorFactor":[
					0,
					0,
					0,
					1
				],
				"metallicFactor":0,
				"roughnessFactor":0.7115027904510498
			}
		},
		{
			"doubleSided":true,
			"emissiveFactor":[
				1,
				0.2158425897359848,
				0.020088467746973038
			],
			"name":"lightbulb_wire",
			"pbrMetallicRoughness":{
				"baseColorFactor":[
					0.800000011920929,
					0.41677001118659973,
					0.08301419764757156,
					1
				],
				"roughnessFactor":0.21532462537288666
			}
		},
		{
			"doubleSided":true,
			"name":"metal",
			"pbrMetallicRoughness":{
				"baseColorFactor":[
					0.20887190103530884,
					0.20887190103530884,
					0.20887190103530884,
					1
				],
				"roughnessFactor":0.3095356822013855
			}
		},
		{
			"alphaMode":"BLEND",
			"doubleSided":true,
			"extensions":{
				"KHR_materials_transmission":{
					"transmissionFactor":1
				}
			},
			"name":"glass",
			"pbrMetallicRoughness":{
				"baseColorFactor":[
					0.6500099897384644,
					0.6500099897384644,
					0.6500099897384644,
					0.25
				],
				"metallicFactor":0,
				"roughnessFactor":0.1399557888507843
			}
		},
		{
			"doubleSided":true,
			"name":"bronze",
			"pbrMetallicRoughness":{
				"baseColorFactor":[
					0.20188799500465393,
					0.09325580298900604,
					0.01328479964286089,
					1
				],
				"roughnessFactor":0.21532462537288666
			}
		}
	],
	"meshes":[
		{
			"name":"cable_cable_0",
			"primitives":[
				{
					"attributes":{
						"POSITION":0,
						"NORMAL":1,
						"TEXCOORD_0":2
					},
					"indices":3,
					"material":0
				},
				{
					"attributes":{
						"POSITION":4,
						"NORMAL":5,
						"TEXCOORD_0":6
					},
					"indices":7,
					"material":1
				},
				{
					"attributes":{
						"POSITION":8,
						"NORMAL":9,
						"TEXCOORD_0":10
					},
					"indices":11,
					"material":2
				},
				{
					"attributes":{
						"POSITION":12,
						"NORMAL":13,
						"TEXCOORD_0":14
					},
					"indices":15,
					"material":3
				},
				{
					"attributes":{
						"POSITION":16,
						"NORMAL":17,
						"TEXCOORD_0":18
					},
					"indices":19,
					"material":4
				}
			]
		}
	],
	"accessors":[
		{
			"bufferView":0,
			"componentType":5126,
			"count":612,
			"max":[
				0.009543421678245068,
				-0.0002680683392100036,
				0.009562301449477673
			],
			"min":[
				-0.009543421678245068,
				-0.7515096068382263,
				-0.009486902505159378
			],
			"type":"VEC3"
		},
		{
			"bufferView":1,
			"componentType":5126,
			"count":612,
			"type":"VEC3"
		},
		{
			"bufferView":2,
			"componentType":5126,
			"count":612,
			"type":"VEC2"
		},
		{
			"bufferView":3,
			"componentType":5123,
			"count":2238,
			"type":"SCALAR"
		},
		{
			"bufferView":4,
			"componentType":5126,
			"count":2000,
			"max":[
				0.004395145457237959,
				-0.7544561624526978,
				0.002253902843222022
			],
			"min":[
				-0.004390731919556856,
				-0.7738339304924011,
				-0.002252566162496805
			],
			"type":"VEC3"
		},
		{
			"bufferView":5,
			"componentType":5126,
			"count":2000,
			"type":"VEC3"
		},
		{
			"bufferView":6,
			"componentType":5126,
			"count":2000,
			"type":"VEC2"
		},
		{
			"bufferView":7,
			"componentType":5123,
			"count":11616,
			"type":"SCALAR"
		},
		{
			"bufferView":8,
			"componentType":5126,
			"count":1390,
			"max":[
				0.00679973466321826,
				-0.7419131398200989,
				0.006757036782801151
			],
			"min":[
				-0.0068200621753931046,
				-0.7552233934402466,
				-0.00672422768548131
			],
			"type":"VEC3"
		},
		{
			"bufferView":9,
			"componentType":5126,
			"count":1390,
			"type":"VEC3"
		},
		{
			"bufferView":10,
			"componentType":5126,
			"count":1390,
			"type":"VEC2"
		},
		{
			"bufferView":11,
			"componentType":5123,
			"count":8280,
			"type":"SCALAR"
		},
		{
			"bufferView":12,
			"componentType":5126,
			"count":578,
			"max":[
				0.012889878824353218,
				-0.7391790747642517,
				0.012889567762613297
			],
			"min":[
				-0.012890316545963287,
				-0.769951343536377,
				-0.012890645302832127
			],
			"type":"VEC3"
		},
		{
			"bufferView":13,
			"componentType":5126,
			"count":578,
			"type":"VEC3"
		},
		{
			"bufferView":14,
			"componentType":5126,
			"count":578,
			"type":"VEC2"
		},
		{
			"bufferView":15,
			"componentType":5123,
			"count":2880,
			"type":"SCALAR"
		},
		{
			"bufferView":16,
			"componentType":5126,
			"count":5855,
			"max":[
				0.056055255234241486,
				-0.6830798983573914,
				0.058847490698099136
			],
			"min":[
				-0.056055255234241486,
				-0.8008148670196533,
				-0.05884748324751854
			],
			"type":"VEC3"
		},
		{
			"bufferView":17,
			"componentType":5126,
			"count":5855,
			"type":"VEC3"
		},
		{
			"bufferView":18,
			"componentType":5126,
			"count":5855,
			"type":"VEC2"
		},
		{
			"bufferView":19,
			"componentType":5123,
			"count":25920,
			"type":"SCALAR"
		}
	],
	"bufferViews":[
		{
			"buffer":0,
			"byteLength":7344,
			"byteOffset":0,
			"target":34962
		},
		{
			"buffer":0,
			"byteLength":7344,
			"byteOffset":7344,
			"target":34962
		},
		{
			"buffer":0,
			"byteLength":4896,
			"byteOffset":14688,
			"target":34962
		},
		{
			"buffer":0,
			"byteLength":4476,
			"byteOffset":19584,
			"target":34963
		},
		{
			"buffer":0,
			"byteLength":24000,
			"byteOffset":24060,
			"target":34962
		},
		{
			"buffer":0,
			"byteLength":24000,
			"byteOffset":48060,
			"target":34962
		},
		{
			"buffer":0,
			"byteLength":16000,
			"byteOffset":72060,
			"target":34962
		},
		{
			"buffer":0,
			"byteLength":23232,
			"byteOffset":88060,
			"target":34963
		},
		{
			"buffer":0,
			"byteLength":16680,
			"byteOffset":111292,
			"target":34962
		},
		{
			"buffer":0,
			"byteLength":16680,
			"byteOffset":127972,
			"target":34962
		},
		{
			"buffer":0,
			"byteLength":11120,
			"byteOffset":144652,
			"target":34962
		},
		{
			"buffer":0,
			"byteLength":16560,
			"byteOffset":155772,
			"target":34963
		},
		{
			"buffer":0,
			"byteLength":6936,
			"byteOffset":172332,
			"target":34962
		},
		{
			"buffer":0,
			"byteLength":6936,
			"byteOffset":179268,
			"target":34962
		},
		{
			"buffer":0,
			"byteLength":4624,
			"byteOffset":186204,
			"target":34962
		},
		{
			"buffer":0,
			"byteLength":5760,
			"byteOffset":190828,
			"target":34963
		},
		{
			"buffer":0,
			"byteLength":70260,
			"byteOffset":196588,
			"target":34962
		},
		{
			"buffer":0,
			"byteLength":70260,
			"byteOffset":266848,
			"target":34962
		},
		{
			"buffer":0,
			"byteLength":46840,
			"byteOffset":337108,
			"target":34962
		},
		{
			"buffer":0,
			"byteLength":51840,
			"byteOffset":383948,
			"target":34963
		}
	],
	"buffers":[
		{
			"byteLength":435788,
			"uri":"data:application/octet-stream;base64,"
		}
	]
}
