{
	"asset":{
		"generator":"Khronos glTF Blender I/O v3.6.27",
		"version":"2.0"
	},
	"scene":0,
	"scenes":[
		{
			"name":"Scene",
			"nodes":[
				0
			]
		}
	],
	"nodes":[
		{
			"mesh":0,
			"name":"SofaChair_1",
			"scale":[
				0.5132132768630981,
				0.5451107025146484,
				0.5451107025146484
			]
		}
	],
	"materials":[
		{
			"doubleSided":true,
			"name":"Material.001",
			"pbrMetallicRoughness":{
				"baseColorFactor":[
					0.2956930100917816,
					0.18667000532150269,
					0.12808699905872345,
					1
				],
				"metallicFactor":0
			}
		},
		{
			"doubleSided":true,
			"name":"Material.002",
			"pbrMetallicRoughness":{
				"baseColorFactor":[
					0.5277180075645447,
					0.247297003865242,
					0.11659400165081024,
					1
				],
				"metallicFactor":0
			}
		},
		{
			"doubleSided":true,
			"name":"Material.003",
			"pbrMetallicRoughness":{
				"baseColorFactor":[
					0.800000011920929,
					0.800000011920929,
					0.800000011920929,
					1
				],
				"roughnessFactor":0.5
			}
		}
	],
	"meshes":[
		{
			"name":"Object_0",
			"primitives":[
				{
					"attributes":{
						"POSITION":0,
						"NORMAL":1,
						"TEXCOORD_0":2
					},
					"indices":3,
					"material":0
				},
				{
					"attributes":{
						"POSITION":4,
						"NORMAL":5,
						"TEXCOORD_0":6
					},
					"indices":7,
					"material":1
				},
				{
					"attributes":{
						"POSITION":8,
						"NORMAL":9,
						"TEXCOORD_0":10
					},
					"indices":11,
					"material":2
				}
			]
		}
	],
	"accessors":[
		{
			"bufferView":0,
			"componentType":5126,
			"count":1056,
			"max":[
				0.8958335518836975,
				1.195772647857666,
				0.7654749751091003
			],
			"min":[
				-0.8958335518836975,
				0.3667769432067871,
				-0.8958335518836975
			],
			"type":"VEC3"
		},
		{
			"bufferView":1,
			"componentType":5126,
			"count":1056,
			"type":"VEC3"
		},
		{
			"bufferView":2,
			"componentType":5126,
			"count":1056,
			"type":"VEC2"
		},
		{
			"bufferView":3,
			"componentType":5123,
			"count":5664,
			"type":"SCALAR"
		},
		{
			"bufferView":4,
			"componentType":5126,
			"count":19730,
			"max":[
				0.8572683334350586,
				1.3091511726379395,
				0.7427036166191101
			],
			"min":[
				-0.8572683334350586,
				0.43102943897247314,
				-0.8572494983673096
			],
			"type":"VEC3"
		},
		{
			"bufferView":5,
			"componentType":5126,
			"count":19730,
			"type":"VEC3"
		},
		{
			"bufferView":6,
			"componentType":5126,
			"count":19730,
			"type":"VEC2"
		},
		{
			"bufferView":7,
			"componentType":5123,
			"count":87360,
			"type":"SCALAR"
		},
		{
			"bufferView":8,
			"componentType":5126,
			"count":615,
			"max":[
				0.6705408692359924,
				0.4798141121864319,
				0.7008593082427979
			],
			"min":[
				-0.6705411076545715,
				0.0021212100982666016,
				-0.6248985528945923
			],
			"type":"VEC3"
		},
		{
			"bufferView":9,
			"componentType":5126,
			"count":615,
			"type":"VEC3"
		},
		{
			"bufferView":10,
			"componentType":5126,
			"count":615,
			"type":"VEC2"
		},
		{
			"bufferView":11,
			"componentType":5123,
			"count":768,
			"type":"SCALAR"
		}
	],
	"bufferViews":[
		{
			"buffer":0,
			"byteLength":12672,
			"byteOffset":0,
			"target":34962
		},
		{
			"buffer":0,
			"byteLength":12672,
			"byteOffset":12672,
			"target":34962
		},
		{
			"buffer":0,
			"byteLength":8448,
			"byteOffset":25344,
			"target":34962
		},
		{
			"buffer":0,
			"byteLength":11328,
			"byteOffset":33792,
			"target":34963
		},
		{
			"buffer":0,
			"byteLength":236760,
			"byteOffset":45120,
			"target":34962
		},
		{
			"buffer":0,
			"byteLength":236760,
			"byteOffset":281880,
			"target":34962
		},
		{
			"buffer":0,
			"byteLength":157840,
			"byteOffset":518640,
			"target":34962
		},
		{
			"buffer":0,
			"byteLength":174720,
			"byteOffset":676480,
			"target":34963
		},
		{
			"buffer":0,
			"byteLength":7380,
			"byteOffset":851200,
			"target":34962
		},
		{
			"buffer":0,
			"byteLength":7380,
			"byteOffset":858580,
			"target":34962
		},
		{
			"buffer":0,
			"byteLength":4920,
			"byteOffset":865960,
			"target":34962
		},
		{
			"buffer":0,
			"byteLength":1536,
			"byteOffset":870880,
			"target":34963
		}
	],
	"buffers":[
		{
			"byteLength":872416,
			"uri":"data:application/octet-stream;base64,"
		}
	]
}
