{
	"asset":{
		"generator":"Khronos glTF Blender I/O v3.6.27",
		"version":"2.0"
	},
	"scene":0,
	"scenes":[
		{
			"name":"Scene",
			"nodes":[
				0
			]
		}
	],
	"nodes":[
		{
			"mesh":0,
			"name":"Lamp_1",
			"scale":[
				0.30758196115493774,
				0.3075820207595825,
				0.3075820207595825
			],
			"translation":[
				-0.0003014802932739258,
				0,
				0
			]
		}
	],
	"materials":[
		{
			"alphaMode":"BLEND",
			"doubleSided":true,
			"name":"01___Default.001",
			"normalTexture":{
				"index":0
			},
			"pbrMetallicRoughness":{
				"baseColorTexture":{
					"index":1
				},
				"metallicRoughnessTexture":{
					"index":2
				}
			}
		}
	],
	"meshes":[
		{
			"name":"defaultMaterial.001",
			"primitives":[
				{
					"attributes":{
						"POSITION":0,
						"NORMAL":1,
						"TEXCOORD_0":2
					},
					"indices":3,
					"material":0
				}
			]
		}
	],
	"textures":[
		{
			"sampler":0,
			"source":0
		},
		{
			"sampler":0,
			"source":1
		},
		{
			"sampler":0,
			"source":2
		}
	],
	"images":[
		{
			"bufferView":4,
			"mimeType":"image/png",
			"name":"Image_2"
		},
		{
			"bufferView":5,
			"mimeType":"image/png",
			"name":"Image_0"
		},
		{
			"bufferView":6,
			"mimeType":"image/png",
			"name":"Image_1"
		}
	],
	"accessors":[
		{
			"bufferView":0,
			"componentType":5126,
			"count":1423,
			"max":[
				0.3717010021209717,
				-0.011647939682006836,
				0.353083997964859
			],
			"min":[
				-0.3717010021209717,
				-2.011647939682007,
				-0.353083997964859
			],
			"type":"VEC3"
		},
		{
			"bufferView":1,
			"componentType":5126,
			"count":1423,
			"type":"VEC3"
		},
		{
			"bufferView":2,
			"componentType":5126,
			"count":1423,
			"type":"VEC2"
		},
		{
			"bufferView":3,
			"componentType":5123,
			"count":2682,
			"type":"SCALAR"
		}
	],
	"bufferViews":[
		{
			"buffer":0,
			"byteLength":17076,
			"byteOffset":0,
			"target":34962
		},
		{
			"buffer":0,
			"byteLength":17076,
			"byteOffset":17076,
			"target":34962
		},
		{
			"buffer":0,
			"byteLength":11384,
			"byteOffset":34152,
			"target":34962
		},
		{
			"buffer":0,
			"byteLength":5364,
			"byteOffset":45536,
			"target":34963
		},
		{
			"buffer":0,
			"byteLength":605,
			"byteOffset":50900
		},
		{
			"buffer":0,
			"byteLength":33113,
			"byteOffset":51508
		},
		{
			"buffer":0,
			"byteLength":18810,
			"byteOffset":84624
		}
	],
	"samplers":[
		{
			"magFilter":9729,
			"minFilter":9987
		}
	],
	"buffers":[
		{
			"byteLength":103436,
			"uri":"data:application/octet-stream;base64,"
		}
	]
}
